# xmcd CD database file
#
# Track frame offsets:
#	150
#	25031
#	58133
#	79276
#	100247
#	132581
#	158734
#	168994
#	200092
#	217624
#	263647
#	287843
#
# Disc length: 4101 seconds
#
# Revision: 0
# Processed by: cddbd v1.5.1PL0 Copyright (c) Steve Scherf et al.
# Submitted via: CDex 1.51
#
DISCID=a710030c
DTITLE=St. Germain - From Detroit to St.Germain
DYEAR=2001
DGENRE=Jazz
TTITLE0=The Black Man
TTITLE1=Alabama Blues
TTITLE2=Walk So Lonely
TTITLE3=Jack On The Groove
TTITLE4=Pr Lusion
TTITLE5=French
TTITLE6=how Do You Plead
TTITLE7=Move
TTITLE8=Deep In It
TTITLE9=Soul Salsa Soul
TTITLE10=My Mama Said
TTITLE11=Pub Experience
EXTD=YEAR: 2001
EXTT0=
EXTT1=
EXTT2=
EXTT3=
EXTT4=
EXTT5=
EXTT6=
EXTT7=
EXTT8=
EXTT9=
EXTT10=
EXTT11=
PLAYORDER=
